<?xml version="1.0" standalone="no"?><!DOCTYPE svg PUBLIC "-//W3C//DTD SVG 1.1//EN" "http://www.w3.org/Graphics/SVG/1.1/DTD/svg11.dtd"><svg xmlns="http://www.w3.org/2000/svg" xmlns:xlink="http://www.w3.org/1999/xlink"><symbol class="aicon" viewBox="0 0 1024 1024" id="facebook"><defs><style/></defs><path d="M589.572 80.31c-27.149 0-52.789 3.018-82.955 15.084-61.839 25.639-92.003 82.955-92.003 174.957v88.987h-85.969v147.808h85.969v426.833h174.957V507.146h119.152l16.59-147.808H589.569v-66.363c0-21.115 1.508-36.197 7.54-43.741 7.54-13.573 22.624-19.607 46.755-19.607h79.937V81.819H589.566z"/></symbol><symbol class="bicon" viewBox="0 0 1024 1024" id="qzone"><defs><style/></defs><path d="M510.391 795.149s-259.017 159.27-275.104 146.399c-16.09-12.87 53.09-308.889 53.09-308.889S56.711 437.996 66.362 413.863c9.653-24.132 307.279-45.045 307.279-45.045S484.647 88.888 510.39 88.888c27.348 0 136.749 279.93 136.749 279.93s299.236 20.914 307.279 45.045c8.043 24.132-222.015 218.796-222.015 218.796s3.219 19.305 6.434 32.174c0 1.609-107.79 3.219-196.274 0-46.657-1.609-102.962-11.263-102.962-11.263l255.797-183.403s-91.7-16.09-186.621-20.914c-102.962-3.219-207.534 6.434-222.015 9.653-9.653 1.609 65.962 1.609 152.836 9.653 61.134 4.827 139.964 20.914 139.964 20.914L323.765 680.919s51.483 9.653 233.277 4.827 242.926-17.696 242.926-17.696-12.87 6.434-25.741 9.653c-14.478 3.219-28.959 8.043-28.959 8.043 19.305 85.266 53.09 239.712 40.22 252.582-19.305 20.914-275.104-143.184-275.104-143.184z"/></symbol><symbol class="cicon" viewBox="0 0 1024 1024" id="twitter"><defs><style/></defs><path d="M260.271 307.556c140.717 72.074 260.839 66.925 260.839 66.925s-44.617-157.876 94.384-228.234c138.998-70.359 236.816 48.048 236.816 48.048s24.025-6.863 42.901-13.728 44.617-18.876 44.617-18.876l-42.901 77.222 66.925-6.863s-8.579 12.014-34.319 36.038c-25.741 24.025-37.754 37.754-37.754 37.754s10.297 190.483-90.95 338.062c-99.53 147.58-229.952 235.099-417.002 253.973-187.05 18.876-310.606-58.347-310.606-58.347s82.37-5.149 133.852-24.025c51.483-20.592 126.99-73.79 126.99-73.79s-106.397-32.605-145.866-70.359-48.048-60.062-48.048-60.062l106.397-1.716s-111.542-60.062-142.433-106.397c-30.89-46.333-36.038-92.666-36.038-92.666l80.656 32.605s-66.925-92.666-77.222-163.025c-10.297-72.074 12.014-109.826 12.014-109.826s36.038 65.21 176.752 137.283z"/></symbol><symbol class="dicon" viewBox="0 0 1024 1024" id="wechat"><defs><style/></defs><path d="M958.828 614.546c0-120.659-111.006-218.796-250.973-223.622-16.09-141.573-152.836-252.582-318.542-252.582-176.967 0-320.15 123.879-320.15 278.321 0 91.7 51.483 172.142 130.311 223.622 9.653 4.827-28.959 85.266-19.305 90.094 16.09 9.653 80.441-59.525 98.137-53.09 35.394 11.263 72.396 17.696 112.617 17.696 19.305 0 38.61-1.609 57.917-4.827 37.003 85.266 133.531 146.399 246.146 146.399 30.567 0 61.134-4.827 88.485-12.87 8.043-3.219 70.787 51.483 78.831 48.265 14.478-4.827-25.741-69.178-12.87-77.222 65.962-40.22 109.398-106.181 109.398-180.186zm-360.371-56.31c-14.478 0-27.348-12.87-27.348-27.348s11.263-27.348 27.348-27.348c14.478 0 27.348 12.87 27.348 27.348s-11.263 27.348-27.348 27.348zm-165.707 56.31c0 6.434 0 14.478 1.609 22.523-14.478 1.609-28.959 3.219-43.437 3.219-37.003 0-72.396-6.434-104.571-17.696-3.219-1.609-14.478-4.827-20.914 0-14.478 9.653-32.174 32.174-32.174 32.174s6.434-16.09 9.653-38.61c1.609-9.653-14.478-17.696-17.696-19.305-59.525-40.22-98.137-109.398-98.137-178.578 0-123.879 117.441-223.622 263.841-223.622 136.749 0 247.756 86.874 262.234 199.489-125.486 17.696-220.405 109.398-220.405 220.405zm333.021-56.31c-14.478 0-27.348-12.87-27.348-27.348s11.263-27.348 27.348-27.348c14.478 0 27.348 12.87 27.348 27.348s-11.263 27.348-27.348 27.348z"/><path d="M501.93 360.356c22.523 0 41.828-19.305 41.828-41.828S524.453 276.7 501.93 276.7c-22.523 0-41.828 19.305-41.828 41.828 0 24.132 19.305 41.828 41.828 41.828zm-222.015 0c22.523 0 41.828-19.305 41.828-41.828S302.438 276.7 279.915 276.7c-22.523 0-41.828 19.305-41.828 41.828 0 24.132 17.696 41.828 41.828 41.828z"/></symbol><symbol class="eicon" viewBox="0 0 1024 1024" id="weibo"><defs><style/></defs><path d="M712.779 484.273c0-8.579 75.506-78.938 0-123.555s-214.506 24.025-209.359 15.443c60.062-104.679-25.741-137.283-68.643-137.283-102.962 0-374.098 229.952-374.098 375.813S240.865 878.964 463.95 878.964s401.554-118.406 401.554-264.273c0-123.555-152.73-123.555-152.73-130.419zM474.246 798.311c-140.717 20.592-267.705-39.47-281.43-133.852s90.95-185.333 233.382-205.926c142.433-20.592 267.705 39.47 281.43 133.852s-90.95 185.333-233.382 205.926z"/><path d="M800.297 434.506h17.163c10.297 0 20.592-8.579 22.308-18.876 0 0 18.876-77.222-27.457-120.125s-108.113-27.457-108.113-27.457c-10.297 1.716-18.876 12.014-18.876 22.308v6.863c0 10.297 8.579 18.876 18.876 17.163 0 0 51.483-6.863 77.222 24.025s5.149 78.938 5.149 78.938c-3.434 10.297 3.434 17.163 13.728 17.163z"/><path d="M899.826 207.989c-85.804-82.37-212.788-70.359-212.788-70.359-15.443 0-27.457 13.728-27.457 29.171v13.728c0 15.443 12.014 27.457 29.171 27.457 0 0 121.84-13.728 173.323 61.778s29.171 169.888 29.171 169.888c-1.716 15.443 8.579 27.457 24.025 27.457h12.014c15.443 0 30.89-12.014 32.605-27.457-1.716 0 25.741-147.58-60.062-231.666zM398.74 510.014c-84.086 17.163-142.433 87.519-128.703 159.594s94.384 116.691 178.469 99.53 142.433-87.519 128.703-159.594-94.384-116.691-178.469-99.53zm-6.865 188.765c-25.741 12.014-54.915 5.149-63.493-13.728-8.579-20.592 5.149-46.333 30.89-58.347s54.915-6.863 63.493 13.728c8.579 20.592-5.149 46.333-30.89 58.347zm60.063-60.062c-15.443 0-27.457-12.014-25.741-25.741 0-13.728 12.014-25.741 25.741-25.741s25.741 10.297 25.741 25.741c0 13.728-12.014 25.741-25.741 25.741z"/></symbol></svg>